Coordinates
version=1
nRows=18
nColumns=22
inDegrees=yes

Units are S.I. units (second, meters, Newtons, ...)
If the header above contains a line with 'inDegrees', this indicates whether rotational values are in degrees (yes) or radians (no).

endheader
time	pelvis_tilt	pelvis_list	pelvis_rotation	pelvis_tx	pelvis_ty	pelvis_tz	hip_flexion_r	hip_adduction_r	hip_rotation_r	knee_angle_r	ankle_angle_r	subtalar_angle_r	hip_flexion_l	hip_adduction_l	hip_rotation_l	knee_angle_l	ankle_angle_l	subtalar_angle_l	lumbar_extension	lumbar_bending	lumbar_rotation
      1.29000000	     -1.47434199	     -2.73463610	     -3.63367274	     -1.23195018	      0.97540831	     -0.66720324	     29.95309578	     -0.61662445	    -17.31131304	    -12.96780437	      8.38998778	      3.26464169	    -10.92689366	      0.01112404	    -14.72418577	    -10.11412952	     22.62517243	     -0.78289340	     -9.16705509	      0.21977871	     -3.91800967
      1.30000000	     -1.43986789	     -2.64583997	     -3.56768386	     -1.22569547	      0.97383507	     -0.66612660	     30.04785268	     -0.72957644	    -17.74603859	    -12.99669903	      8.39632806	      2.91568852	    -11.22787124	      0.02028009	    -14.70689358	    -10.38164651	     22.86964534	     -0.53803084	     -9.19637243	      0.21925866	     -4.01112178
      1.31000000	     -1.39840467	     -2.55527476	     -3.46461975	     -1.21927954	      0.97234126	     -0.66506144	     30.11939423	     -0.88555308	    -18.10630049	    -13.17663216	      8.40937378	      2.64796464	    -11.53525072	      0.01984368	    -14.66473134	    -10.66348422	     23.06765487	     -0.30923792	     -9.23330777	      0.22839340	     -4.15487482
      1.32000000	     -1.36172153	     -2.48583817	     -3.35217059	     -1.21265448	      0.97096810	     -0.66397286	     30.16040169	     -1.04451120	    -18.40514658	    -13.46245903	      8.29221437	      2.32076321	    -11.86521515	     -0.00643547	    -14.61568769	    -10.91495188	     23.19358921	      0.09860894	     -9.25950821	      0.27402698	     -4.28297998
      1.33000000	     -1.32316192	     -2.40814752	     -3.18840255	     -1.20587396	      0.96971489	     -0.66291364	     30.18017019	     -1.26121811	    -18.63711575	    -13.88623817	      8.20745801	      2.18383125	    -12.19433017	     -0.03895448	    -14.49466997	    -11.17851868	     23.24207949	      0.38244564	     -9.29189493	      0.32552847	     -4.47759074
      1.34000000	     -1.28652387	     -2.36509973	     -3.02398687	     -1.19886503	      0.96862064	     -0.66176882	     30.16196667	     -1.45409278	    -18.80725068	    -14.38887840	      8.02442762	      2.01874488	    -12.54677313	     -0.11871279	    -14.39176968	    -11.42274527	     23.23259435	      0.90015793	     -9.31320521	      0.42096770	     -4.64272907
      1.35000000	     -1.26062172	     -2.30530183	     -2.81408438	     -1.19167151	      0.96768633	     -0.66061984	     30.12525934	     -1.69460303	    -18.94314634	    -14.97270848	      7.79518427	      1.95992557	    -12.89486658	     -0.19559112	    -14.19465133	    -11.65771147	     23.07957535	      1.24891510	     -9.31871721	      0.51000312	     -4.87901705
      1.36000000	     -1.22445048	     -2.28382980	     -2.60971594	     -1.18421541	      0.96694517	     -0.65934478	     30.04488760	     -1.89622767	    -19.08426517	    -15.61661896	      7.52145160	      1.83008096	    -13.27307128	     -0.32836820	    -14.02564259	    -11.89075523	     22.90431700	      1.88624991	     -9.32358590	      0.64389682	     -5.07511978
      1.37000000	     -1.20378963	     -2.26107605	     -2.38215131	     -1.17654423	      0.96639345	     -0.65795607	     29.95146428	     -2.10274799	    -19.24112084	    -16.29573503	      7.16944942	      1.69647108	    -13.64477393	     -0.47835879	    -13.76866734	    -12.11784703	     22.57679215	      2.43323154	     -9.30084205	      0.76907546	     -5.28831575
      1.38000000	     -1.18880809	     -2.26260879	     -2.15951906	     -1.16860514	      0.96605666	     -0.65642327	     29.83144613	     -2.27055524	    -19.41894497	    -16.98660435	      6.74130006	      1.46326341	    -14.02582976	     -0.67078263	    -13.53320937	    -12.33788079	     22.15306092	      3.10120038	     -9.25480286	      0.92461621	     -5.51073369
      1.39000000	     -1.18556018	     -2.27987992	     -1.93771157	     -1.16043463	      0.96593765	     -0.65472894	     29.70038312	     -2.40835357	    -19.63358242	    -17.68265161	      6.26257581	      1.16293915	    -14.39823638	     -0.89585204	    -13.23073101	    -12.56858606	     21.61069061	      3.76634817	     -9.18361260	      1.08919475	     -5.71354525
      1.40000000	     -1.19272584	     -2.32102288	     -1.72845536	     -1.15202684	      0.96605279	     -0.65284140	     29.55755253	     -2.49808748	    -19.87564029	    -18.36854288	      5.73544826	      0.77231776	    -14.75904740	     -1.16187562	    -12.90535595	    -12.81742105	     20.95274289	      4.47874329	     -9.08793081	      1.26975208	     -5.90204235
      1.41000000	     -1.21432908	     -2.39070869	     -1.54830029	     -1.14339409	      0.96639593	     -0.65072429	     29.40701650	     -2.52179862	    -20.10743431	    -19.02771603	      5.18390378	      0.29769529	    -15.09439498	     -1.47262183	    -12.57981872	    -13.10273690	     20.18273109	      5.23363765	     -8.96466473	      1.46780108	     -6.05936686
      1.42000000	     -1.24923854	     -2.47913288	     -1.39139947	     -1.13454762	      0.96696497	     -0.64841385	     29.25346854	     -2.49634896	    -20.32828495	    -19.66737975	      4.63385128	     -0.20762670	    -15.39898936	     -1.81381655	    -12.23096547	    -13.42866793	     19.30175268	      5.99335768	     -8.81525478	      1.67739919	     -6.20047915
      1.43000000	     -1.29814222	     -2.58762659	     -1.27023091	     -1.12550739	      0.96774843	     -0.64587914	     29.09599822	     -2.40903162	    -20.50207565	    -20.27837455	      4.11035510	     -0.72957751	    -15.66058272	     -2.18600306	    -11.88589240	    -13.81521130	     18.31413760	      6.76755723	     -8.64165328	      1.89620561	     -6.31684047
      1.44000000	     -1.35825478	     -2.70867482	     -1.18101431	     -1.11628578	      0.96872859	     -0.64314216	     28.93062097	     -2.26922098	    -20.61795496	    -20.86024891	      3.63525707	     -1.23888193	    -15.87184907	     -2.58017803	    -11.54216131	    -14.27661725	     17.22772660	      7.54942708	     -8.44790955	      2.11801671	     -6.41740749
      1.45000000	     -1.42955239	     -2.83785639	     -1.12827964	     -1.10689527	      0.96987781	     -0.64020557	     28.75506039	     -2.07847957	    -20.66488670	    -21.41070237	      3.22449339	     -1.71632832	    -16.02467279	     -2.98961448	    -11.21185582	    -14.82453529	     16.04727220	      8.33512193	     -8.23389654	      2.33821988	     -6.50131720
      1.46000000	     -1.50844369	     -2.96751558	     -1.10531739	     -1.09736107	      0.97117308	     -0.63709134	     28.56199055	     -1.84824440	    -20.64946149	    -21.92604334	      2.89323079	     -2.15039347	    -16.10966683	     -3.40806287	    -10.90080738	    -15.47476607	     14.77660498	      9.11748119	     -8.00479098	      2.54931111	     -6.57574685
